HIERARCHY
ROOT Hips
{
	OFFSET -3.958830 18.904000 13.208200
	CHANNELS 6 Xposition Yposition Zposition Zrotation Yrotation Xrotation 
	JOINT LHipJoint
	{
		OFFSET 0.000000 0.000000 0.000000
		CHANNELS 3 Zrotation Yrotation Xrotation
		JOINT LeftUpLeg
		{
			OFFSET 1.800000 -1.400000 0.085000
			CHANNELS 3 Zrotation Yrotation Xrotation
			JOINT LeftLeg
			{
				OFFSET 2.215000 -6.000000 0.000000
				CHANNELS 3 Zrotation Yrotation Xrotation
				JOINT LeftFoot
				{
					OFFSET 2.500000 -6.900000 0.000000
					CHANNELS 3 Zrotation Yrotation Xrotation
					JOINT LeftToeBase
					{
						OFFSET 0.200000 -0.500000 1.950000
						CHANNELS 3 Zrotation Yrotation Xrotation
						End Site
						{
							OFFSET 0.000000 0.000000 0.000000
						}
					}
				}
			}
		}
	}
	JOINT RHipJoint
	{
		OFFSET 0.000000 0.000000 0.000000
		CHANNELS 3 Zrotation Yrotation Xrotation
		JOINT RightUpLeg
		{
			OFFSET -1.800000 -1.400000 0.085000
			CHANNELS 3 Zrotation Yrotation Xrotation
			JOINT RightLeg
			{
				OFFSET -2.215000 -6.000000 0.000000
				CHANNELS 3 Zrotation Yrotation Xrotation
				JOINT RightFoot
				{
					OFFSET -2.500000 -6.900000 0.000000
					CHANNELS 3 Zrotation Yrotation Xrotation
					JOINT RightToeBase
					{
						OFFSET -0.200000 -0.500000 1.950000
						CHANNELS 3 Zrotation Yrotation Xrotation
						End Site
						{
							OFFSET 0.000000 0.000000 0.000000
						}
					}
				}
			}
		}
	}
	JOINT LowerBack
	{
		OFFSET 0.000000 0.000000 0.000000
		CHANNELS 3 Zrotation Yrotation Xrotation
		JOINT Spine
		{
			OFFSET -0.087000 1.940000 -0.288900
			CHANNELS 3 Zrotation Yrotation Xrotation
			JOINT Spine1
			{
				OFFSET 0.000000 1.950000 0.060000
				CHANNELS 3 Zrotation Yrotation Xrotation
				JOINT Neck
				{
					OFFSET 0.000000 0.000000 0.000000
					CHANNELS 3 Zrotation Yrotation Xrotation
					JOINT Neck1
					{
						OFFSET 0.000000 1.600000 0.340000
						CHANNELS 3 Zrotation Yrotation Xrotation
						JOINT Head
						{
							OFFSET 0.000000 1.667000 -0.240000
							CHANNELS 3 Zrotation Yrotation Xrotation
							End Site
							{
								OFFSET 0.000000 0.000000 0.000000
							}
						}
					}
				}
				JOINT LeftShoulder
				{
					OFFSET 0.000000 0.000000 0.000000
					CHANNELS 3 Zrotation Yrotation Xrotation
					JOINT LeftArm
					{
						OFFSET 2.700000 1.550000 -0.730000
						CHANNELS 3 Zrotation Yrotation Xrotation
						JOINT LeftForeArm
						{
							OFFSET 5.450000 0.000000 0.000000
							CHANNELS 3 Zrotation Yrotation Xrotation
							JOINT LeftHand
							{
								OFFSET 3.450000 0.000000 0.000000
								CHANNELS 3 Zrotation Yrotation Xrotation
								JOINT LeftHandIndex1
								{
									OFFSET 0.750000 0.000000 0.000000
									CHANNELS 3 Zrotation Yrotation Xrotation
									End Site
									{
										OFFSET 0.000000 0.000000 0.000000
									}
								}
							}
						}
					}
				}
				JOINT RightShoulder
				{
					OFFSET 0.000000 0.000000 0.000000
					CHANNELS 3 Zrotation Yrotation Xrotation
					JOINT RightArm
					{
						OFFSET -2.700000 1.550000 -0.730000
						CHANNELS 3 Zrotation Yrotation Xrotation
						JOINT RightForeArm
						{
							OFFSET -5.450000 0.000000 0.000000
							CHANNELS 3 Zrotation Yrotation Xrotation
							JOINT RightHand
							{
								OFFSET -3.450000 0.000000 0.000000
								CHANNELS 3 Zrotation Yrotation Xrotation
								JOINT RightHandIndex1
								{
									OFFSET -0.750000 0.000000 0.000000
									CHANNELS 3 Zrotation Yrotation Xrotation
									End Site
									{
										OFFSET 0.000000 0.000000 0.000000
									}
								}
							}
						}
					}
				}
			}
		}
	}
}
MOTION
Frames: 14
Frame Time: 0.016667
0.616150 16.704130 -1.140510 -14.081616 -33.226294 7.152808 -15.120284 10.634977 1.607937 9.769838 -1.867835 -12.057248 -10.725415 5.559425 7.680778 -0.890436 4.099331 3.103229 0.579000 0.433520 0.523650 19.154745 -6.626029 8.349525 21.783032 31.398340 -64.272520 -4.460560 -0.691404 40.833540 -0.523048 -3.831597 2.789164 0.432940 0.075130 0.178180 -5.701995 -1.031419 -9.228506 30.342708 -3.479627 19.286412 -5.733532 6.481965 10.974690 0.237814 -5.523437 -10.666505 -13.124099 3.102815 33.323581 -6.700050 4.103750 -19.415330 -31.353707 -27.782660 -0.938210 -25.360059 -34.480727 -4.367839 26.625840 -58.156614 -15.069983 -3.629262 2.391316 0.599450 0.070900 0.137620 0.070990 29.338738 27.325702 13.211458 46.815086 -0.815088 -6.870268 -0.296073 18.269168 -1.263857 1.875835 -1.324225 -0.267720 0.396420 0.025830 -0.312830 
0.615900 16.699910 -1.139520 -13.763460 -32.810281 7.037327 -15.124077 10.634128 1.614795 9.398216 -1.882845 -11.900741 -10.604175 5.440210 7.267423 -0.888090 4.062549 3.128525 0.574390 0.430030 0.512410 19.153908 -6.617844 8.349113 21.286694 31.465806 -65.261118 -4.374891 -0.777755 41.540084 -0.537229 -3.966107 2.744851 0.433150 0.093240 0.185000 -5.687718 -1.065029 -9.223388 29.963235 -3.424126 19.020071 -5.558196 6.296944 10.992193 0.165077 -5.362753 -10.590376 -12.717949 3.034837 33.072883 -6.603040 4.134360 -18.901070 -31.360306 -27.817267 -0.907836 -25.425163 -34.544847 -4.240523 25.792238 -58.171169 -14.611558 -3.646155 2.416139 0.583050 0.087160 0.126360 0.078960 29.503647 27.170105 13.147127 46.746480 -0.878991 -6.855973 -0.228056 18.286758 -1.280414 1.872915 -1.338088 -0.266610 0.394030 0.026560 -0.305130 
0.616930 16.692960 -1.134560 -13.341860 -31.936151 6.784911 -15.125174 10.647780 1.642119 8.851491 -1.878144 -11.440832 -10.362480 5.206138 6.328210 -0.881749 3.995250 3.168257 0.570280 0.432360 0.497400 19.149618 -6.634549 8.309015 20.629602 31.308389 -66.579287 -4.071961 -0.989337 42.146895 -0.545626 -4.092517 2.703488 0.435650 0.110380 0.191600 -5.658545 -1.109269 -9.203855 29.517610 -3.452367 18.607624 -5.407731 5.930041 11.033955 0.158335 -5.020214 -10.498777 -11.942134 2.875509 32.786346 -6.536730 4.222800 -18.283670 -31.339600 -27.955408 -0.784179 -25.579099 -34.599484 -4.058703 24.058424 -58.307047 -13.701378 -3.664639 2.462398 0.560420 0.106290 0.114100 0.089070 29.520761 26.969884 13.025327 46.970817 -0.954135 -6.884439 -0.323594 18.354717 -1.328818 1.870836 -1.358480 -0.262460 0.386690 0.024230 -0.295230 
0.618970 16.689950 -1.125540 -12.573695 -30.829325 5.910267 -15.124873 10.769542 1.681653 8.070762 -1.875566 -11.180054 -10.140476 5.205471 6.629718 -0.871509 3.973808 3.187523 0.556530 0.414630 0.487790 19.122809 -6.706615 8.226061 19.831750 30.666404 -67.714135 -3.503334 -1.320517 42.516098 -0.543327 -4.179697 2.678720 0.423900 0.122190 0.193540 -5.569905 -1.250830 -9.170494 28.553971 -3.638133 18.749800 -5.120672 5.394592 10.898824 0.186187 -4.661348 -10.494219 -11.257581 2.804491 32.822529 -6.496750 4.382530 -17.743250 -31.918022 -28.213861 -0.612917 -25.440891 -34.184951 -4.120071 20.641574 -58.860165 -11.974642 -3.682085 2.528498 0.548050 0.118250 0.102290 0.090850 30.098129 26.892620 13.019718 46.706244 -1.200383 -6.938224 -0.545589 18.299153 -1.351587 1.873356 -1.368064 -0.263420 0.378930 0.025320 -0.292580 
0.617740 16.677240 -1.109890 -11.871971 -29.098922 5.101526 -15.125309 10.887259 1.734207 7.343113 -1.868904 -10.708200 -9.896809 5.124656 6.412136 -0.863651 3.962179 3.210177 0.527720 0.381080 0.461330 19.096756 -6.770975 8.109532 18.939912 29.876218 -69.358449 -2.927208 -1.721398 42.784223 -0.530051 -4.271001 2.652752 0.406760 0.150450 0.198700 -5.463977 -1.425831 -9.122705 27.680455 -3.971231 18.642459 -4.844468 4.636563 10.438208 0.224741 -4.263489 -10.238419 -10.448269 2.660336 32.604008 -6.542510 4.502760 -16.928140 -32.354414 -27.861560 -0.509836 -26.031078 -34.068759 -3.626123 15.977438 -59.125142 -9.491091 -3.716704 2.608242 0.530520 0.142670 0.079030 0.092740 30.491619 26.141393 12.685410 46.697429 -1.445274 -6.953421 -0.476356 18.088028 -1.340287 1.877530 -1.370897 -0.271230 0.373450 0.038470 -0.287330 
0.612830 16.662120 -1.086690 -11.255303 -26.566249 4.106690 -15.124919 11.028091 1.814147 6.721504 -1.820129 -9.703846 -9.577480 4.951792 5.498950 -0.834548 3.946467 3.230714 0.510620 0.361940 0.449570 19.065163 -6.851767 7.929476 17.984220 28.646889 -71.227945 -2.412688 -2.179359 42.734769 -0.511965 -4.319211 2.633753 0.390250 0.157850 0.206970 -5.326227 -1.648415 -9.061642 26.831002 -4.531224 18.450605 -4.469823 3.551101 9.874774 0.342444 -3.749669 -9.836012 -9.479670 2.391724 32.459832 -6.739510 4.649230 -16.280890 -32.839029 -27.104170 -0.341474 -27.368403 -34.083081 -2.923069 11.434667 -58.936354 -7.043564 -3.739110 2.695654 0.508940 0.157610 0.066390 0.090300 30.778809 24.887561 12.088238 46.679140 -1.731658 -6.954205 -0.021107 17.771443 -1.284815 1.896262 -1.374699 -0.263240 0.351870 0.040600 -0.283060 
0.608390 16.646570 -1.056540 -10.680738 -23.850330 3.030096 -15.117275 11.229615 1.893634 6.167601 -1.765275 -8.977008 -9.241200 4.922599 5.382508 -0.799068 3.954762 3.238698 0.488450 0.335080 0.431290 19.024911 -6.997429 7.673917 16.772064 26.800400 -72.116407 -1.380435 -2.925879 42.745449 -0.504304 -4.423510 2.600262 0.365100 0.166760 0.215400 -5.170452 -1.892522 -8.973216 26.018626 -5.145007 18.272980 -3.994429 2.371003 9.215301 0.444292 -3.358418 -9.480612 -8.812220 2.161187 32.459957 -6.809110 4.699100 -15.534910 -33.149479 -26.021430 -0.071528 -29.180472 -33.758793 -2.272864 6.374032 -58.845486 -4.450140 -3.752769 2.790452 0.489460 0.169180 0.053760 0.088870 30.964607 23.463482 11.404211 46.676099 -2.022776 -6.941961 0.333296 17.219194 -1.213614 1.923108 -1.371788 -0.253160 0.328980 0.044720 -0.275580 
0.604610 16.629520 -1.021530 -10.005063 -21.131267 1.866136 -15.112411 11.461528 1.968625 5.546529 -1.687764 -8.410565 -8.967781 5.002961 5.844820 -0.771959 3.986215 3.234790 0.459680 0.296280 0.413080 18.977509 -7.164881 7.387085 15.687648 24.615899 -71.995541 -0.577435 -3.644834 42.701670 -0.499116 -4.535390 2.564260 0.336190 0.172190 0.217050 -5.002081 -2.160829 -8.880525 25.023060 -5.691358 18.095604 -3.512599 1.165389 8.437034 0.614130 -2.951216 -9.032224 -8.207236 1.944634 32.764447 -6.925040 4.795060 -14.776590 -33.344207 -24.452890 0.205014 -31.730771 -33.358778 -1.480525 1.951418 -58.692073 -2.266281 -3.758823 2.863123 0.482470 0.175020 0.040940 0.083600 30.903117 21.647623 10.477946 46.870657 -2.050753 -6.845529 0.759495 16.367595 -1.117892 1.958478 -1.354142 -0.254050 0.309370 0.052590 -0.275210 
0.599460 16.612380 -0.988870 -9.370281 -18.855716 0.797411 -15.115492 11.649513 2.015389 5.023209 -1.610668 -7.924123 -8.790669 5.143370 6.579251 -0.742158 4.030099 3.226686 0.435500 0.260410 0.405970 18.938178 -7.274808 7.186129 15.072930 23.007264 -71.670410 -0.736723 -3.981659 43.287261 -0.515384 -4.706145 2.512030 0.307420 0.169870 0.211450 -4.859229 -2.404807 -8.827885 24.049616 -6.154692 18.088057 -3.319469 0.224558 7.504116 0.905224 -2.575017 -8.558910 -7.690132 1.757506 33.263512 -7.085580 4.919230 -14.257920 -33.727593 -22.807627 0.304147 -33.949981 -32.696057 -0.732611 -2.744506 -58.068364 0.145625 -3.760916 2.918991 0.485690 0.171390 0.036560 0.079580 30.767185 19.854989 9.577329 47.484100 -2.042048 -6.819852 0.965985 15.523231 -1.046565 1.997852 -1.326503 -0.258360 0.298150 0.053580 -0.278540 
0.591850 16.593500 -0.951010 -8.710324 -16.651565 -0.193036 -15.132078 11.831279 2.039052 4.461500 -1.569466 -7.516807 -8.506191 5.316892 7.668817 -0.712229 4.088341 3.218772 0.398740 0.208240 0.388470 18.895844 -7.340840 7.025788 14.481320 21.735937 -71.710246 -1.216775 -4.369783 45.301678 -0.575348 -5.142758 2.375728 0.270190 0.180550 0.203950 -4.704692 -2.705403 -8.794612 22.859129 -6.557170 18.054922 -2.918894 -0.678556 6.239296 1.114806 -2.211558 -7.910658 -7.228913 1.603204 33.771002 -7.136870 5.032780 -13.508390 -34.180583 -20.578593 0.163665 -36.700677 -31.945800 0.274353 -7.069771 -56.763212 2.326274 -3.774302 2.952983 0.489790 0.172950 0.024810 0.076690 30.885543 17.456279 8.497224 48.120781 -2.297881 -6.958566 0.925664 14.912820 -0.991999 2.033673 -1.293646 -0.270360 0.292780 0.060850 -0.279790 
0.583690 16.574940 -0.912270 -8.060282 -14.754266 -0.986680 -15.148705 11.986554 2.054947 3.925729 -1.552382 -7.240135 -8.302575 5.524988 8.950199 -0.667012 4.156613 3.206229 0.359340 0.157630 0.360820 18.859438 -7.392387 6.892178 14.405435 20.689068 -71.362930 -2.401749 -4.312128 46.702863 -0.606765 -5.421002 2.295688 0.230250 0.196540 0.197130 -4.575904 -2.971566 -8.765132 21.757479 -6.921199 17.908563 -2.646656 -1.493967 4.788093 1.295464 -1.966576 -7.176530 -6.956619 1.619909 34.257276 -6.930580 5.141200 -12.511860 -34.820011 -18.067794 -0.168628 -39.204588 -30.833842 1.190565 -11.155824 -55.587065 4.361244 -3.790980 2.989933 0.482730 0.175830 0.009430 0.077240 31.256124 14.823449 7.331868 48.513749 -2.495658 -6.937909 0.996950 13.885371 -0.917695 2.080619 -1.261917 -0.275250 0.283690 0.068180 -0.272120 
0.579120 16.551050 -0.871380 -7.479645 -12.948544 -1.454997 -15.164538 12.106726 2.058061 3.378104 -1.563483 -7.125968 -8.036091 5.710746 10.261571 -0.628129 4.223758 3.194090 0.302790 0.095740 0.312770 18.831761 -7.437648 6.773393 14.440680 19.790663 -71.311482 -3.867614 -4.068104 47.831496 -0.612557 -5.651524 2.238635 0.188960 0.230190 0.185580 -4.475750 -3.183825 -8.722603 20.822509 -7.264985 17.390911 -2.530424 -2.282286 3.378919 1.521952 -1.663584 -6.395391 -6.458386 1.617005 34.400707 -6.686210 5.276670 -11.085670 -35.150343 -15.399395 -0.578789 -42.008574 -29.731006 2.165655 -14.166329 -54.459987 5.786994 -3.828261 3.009510 0.459280 0.195990 -0.024990 0.073610 31.240951 11.943630 6.046287 49.234931 -2.617401 -6.878472 1.207536 12.728327 -0.856427 2.124598 -1.226760 -0.286240 0.278380 0.089280 -0.261420 
0.577650 16.522050 -0.831100 -7.085413 -11.168870 -1.674109 -15.169720 12.183305 2.031492 2.785312 -1.586252 -7.044720 -7.415948 5.791054 11.615847 -0.599800 4.271875 3.186576 0.267080 0.042950 0.280780 18.824364 -7.488277 6.679076 14.455966 19.097285 -71.795791 -5.301943 -3.824564 48.935868 -0.631090 -5.896465 2.161815 0.153540 0.259950 0.199770 -4.434270 -3.290048 -8.653116 20.416367 -7.687359 16.572894 -2.994215 -3.032156 2.054907 1.946554 -1.311526 -5.503173 -5.723365 1.497336 34.199954 -6.472680 5.372860 -9.781870 -35.195241 -12.468800 -1.162611 -44.975059 -28.860603 3.311052 -16.094858 -53.656407 6.719559 -3.867441 3.038495 0.440650 0.217330 -0.050050 0.077550 30.507090 8.678844 4.572141 50.853106 -2.476019 -6.849185 1.359512 11.617401 -0.826646 2.170187 -1.208953 -0.286340 0.256780 0.103350 -0.252280 
0.581000 16.495070 -0.791100 -6.794193 -9.267873 -2.093253 -15.170605 12.239759 2.012271 2.303355 -1.545881 -6.578220 -6.754982 5.774289 12.309231 -0.577597 4.295424 3.188134 0.237530 -0.000090 0.262160 18.822641 -7.550575 6.578912 14.280497 18.375576 -72.703353 -6.875035 -3.708320 51.279040 -0.701858 -6.392120 2.001825 0.124890 0.274470 0.202260 -4.409231 -3.358115 -8.602326 20.226954 -8.246869 15.889230 -3.810253 -3.810094 1.056047 2.591055 -0.821929 -4.807941 -4.762504 1.266356 34.331621 -6.466020 5.604970 -8.780610 -35.374481 -10.135842 -1.616361 -47.268898 -28.126664 4.156851 -17.324186 -53.313380 7.389242 -3.888160 3.051797 0.433160 0.229120 -0.066830 0.077280 29.472639 5.840637 3.351930 52.950774 -2.383343 -6.935936 1.405400 10.851356 -0.818998 2.210285 -1.187282 -0.292400 0.240900 0.110790 -0.251910 
